<svg aria-hidden="true" style="position: absolute; width: 0; height: 0; overflow: hidden;" version="1.1" xmlns="http://www.w3.org/2000/svg" xmlns:xlink="http://www.w3.org/1999/xlink">
<defs>
<symbol id="icon-cross" viewBox="0 0 32 32">
<path d="M8.533 25.333l-1.867-1.867 7.467-7.467-7.467-7.467 1.867-1.867 7.467 7.467 7.467-7.467 1.867 1.867-7.467 7.467 7.467 7.467-1.867 1.867-7.467-7.467-7.467 7.467z"></path>
</symbol>
<symbol id="icon-visibility" viewBox="0 0 35 32">
<path d="M23.218 17.219l-2.21-2.21c0.229-1.194-0.114-2.311-1.029-3.352s-2.095-1.448-3.543-1.219l-2.21-2.21c0.432-0.203 0.87-0.356 1.314-0.457s0.921-0.152 1.429-0.152c1.905 0 3.524 0.667 4.857 2s2 2.952 2 4.857c0 0.508-0.051 0.984-0.152 1.429s-0.254 0.883-0.457 1.314zM28.094 22.019l-2.21-2.133c0.965-0.736 1.822-1.543 2.571-2.419s1.39-1.873 1.924-2.99c-1.27-2.565-3.092-4.603-5.467-6.114s-5.022-2.267-7.943-2.267c-0.737 0-1.46 0.051-2.171 0.152s-1.41 0.254-2.095 0.457l-2.362-2.362c1.041-0.432 2.108-0.756 3.2-0.971s2.235-0.324 3.429-0.324c3.835 0 7.251 1.060 10.248 3.181s5.168 4.87 6.514 8.248c-0.584 1.498-1.352 2.889-2.305 4.171s-2.064 2.406-3.333 3.371zM28.856 31.39l-6.4-6.324c-0.889 0.279-1.784 0.489-2.686 0.629s-1.835 0.21-2.8 0.21c-3.835 0-7.251-1.060-10.248-3.181s-5.168-4.87-6.514-8.248c0.533-1.346 1.206-2.597 2.019-3.752s1.74-2.191 2.781-3.105l-4.19-4.267 2.133-2.133 28.038 28.038-2.133 2.133zM7.142 9.752c-0.737 0.66-1.41 1.384-2.019 2.171s-1.13 1.638-1.562 2.552c1.27 2.565 3.092 4.603 5.467 6.114s5.022 2.267 7.943 2.267c0.508 0 1.003-0.032 1.486-0.095s0.978-0.133 1.486-0.21l-1.371-1.448c-0.279 0.076-0.546 0.133-0.8 0.171s-0.521 0.057-0.8 0.057c-1.905 0-3.524-0.667-4.857-2s-2-2.952-2-4.857c0-0.279 0.019-0.546 0.057-0.8s0.095-0.521 0.171-0.8l-3.2-3.124z"></path>
</symbol>
<symbol id="icon-plus" viewBox="0 0 32 32">
<path d="M13.714 13.714v-13.714h4.571v13.714h13.714v4.571h-13.714v13.714h-4.571v-13.714h-13.714v-4.571h13.714z"></path>
</symbol>
<symbol id="icon-logout" viewBox="0 0 34 32">
<path d="M4.444 32c-0.978 0-1.815-0.348-2.511-1.044s-1.044-1.533-1.044-2.511v-24.889c0-0.978 0.348-1.815 1.044-2.511s1.533-1.044 2.511-1.044h12.444v3.556h-12.444v24.889h12.444v3.556h-12.444zM24 24.889l-2.444-2.578 4.533-4.533h-14.533v-3.556h14.533l-4.533-4.533 2.444-2.578 8.889 8.889-8.889 8.889z"></path>
</symbol>
<symbol id="icon-Component" viewBox="0 0 32 32">
<path d="M2.667 32v-5.333h26.667v5.333h-26.667zM8 21.333h1.867l10.4-10.367-1.9-1.9-10.367 10.4v1.867zM5.333 24v-5.667l14.933-14.9c0.244-0.244 0.528-0.433 0.85-0.567s0.661-0.2 1.017-0.2c0.356 0 0.7 0.067 1.033 0.2s0.633 0.333 0.9 0.6l1.833 1.867c0.267 0.244 0.461 0.533 0.583 0.867s0.183 0.678 0.183 1.033c0 0.333-0.061 0.661-0.183 0.983s-0.317 0.617-0.583 0.883l-14.9 14.9h-5.667z"></path>
</symbol>
<symbol id="icon-pin_drop" viewBox="0 0 21 32">
<path d="M10.667 22.819c2.514-2.032 4.413-3.987 5.695-5.867s1.924-3.644 1.924-5.295c0-2.286-0.711-4.165-2.133-5.638s-3.251-2.21-5.486-2.21-4.064 0.736-5.486 2.21c-1.422 1.473-2.133 3.352-2.133 5.638 0 1.651 0.641 3.416 1.924 5.295s3.181 3.835 5.695 5.867zM10.667 26.667c-3.581-2.641-6.254-5.206-8.019-7.695s-2.648-4.927-2.648-7.314c0-3.175 0.99-5.784 2.971-7.829s4.546-3.067 7.695-3.067c3.149 0 5.714 1.022 7.695 3.067s2.971 4.654 2.971 7.829c0 2.387-0.883 4.825-2.648 7.314s-4.438 5.054-8.019 7.695zM10.667 14.476c0.838 0 1.556-0.298 2.152-0.895s0.895-1.314 0.895-2.152c0-0.838-0.298-1.556-0.895-2.152s-1.314-0.895-2.152-0.895c-0.838 0-1.556 0.298-2.152 0.895s-0.895 1.314-0.895 2.152c0 0.838 0.298 1.556 0.895 2.152s1.314 0.895 2.152 0.895zM0 31.238v-3.048h21.333v3.048h-21.333z"></path>
</symbol>
<symbol id="icon-list" viewBox="0 0 40 32">
<path d="M7.1 32l-7.1-7.1 2.8-2.8 4.25 4.25 8.5-8.5 2.8 2.85-11.25 11.3zM7.1 16l-7.1-7.1 2.8-2.8 4.25 4.25 8.5-8.5 2.8 2.85-11.25 11.3zM22 28v-4h18v4h-18zM22 12v-4h18v4h-18z"></path>
</symbol>
<symbol id="icon-dashboard" viewBox="0 0 30 32">
<path d="M0 0.842h13.474v13.474h-13.474v-13.474zM16.842 0.842h13.474v13.474h-13.474v-13.474zM0 17.684h13.474v13.474h-13.474v-13.474zM21.895 17.684h3.368v5.053h5.053v3.368h-5.053v5.053h-3.368v-5.053h-5.053v-3.368h5.053v-5.053zM20.211 4.211v6.737h6.737v-6.737h-6.737zM3.368 4.211v6.737h6.737v-6.737h-6.737zM3.368 21.053v6.737h6.737v-6.737h-6.737z"></path>
</symbol>
<symbol id="icon-arrow" viewBox="0 0 20 32">
<path d="M11.323 16l-11.323-11.323 3.446-3.446 14.769 14.769-14.769 14.769-3.446-3.446 11.323-11.323z"></path>
</symbol>
<symbol id="icon-cube" viewBox="0 0 31 32">
<path d="M23.040 28.8l3.84-3.84-0.896-0.896-2.304 2.304v-5.248h-1.28v5.248l-2.304-2.304-0.896 0.896 3.84 3.84zM15.36 5.76l-7.584 4.384 7.584 4.384 7.584-4.384-7.584-4.384zM3.84 21.088v-10.176c0-0.469 0.112-0.896 0.336-1.28s0.539-0.693 0.944-0.928l8.96-5.152c0.213-0.107 0.421-0.192 0.624-0.256s0.421-0.096 0.656-0.096c0.235 0 0.459 0.032 0.672 0.096s0.416 0.149 0.608 0.256l8.96 5.152c0.405 0.235 0.72 0.544 0.944 0.928s0.336 0.811 0.336 1.28v5.088h-2.56v-3.712l-8.992 5.184-8.928-5.184v8.768l7.68 4.448v2.944l-8.96-5.152c-0.405-0.235-0.72-0.544-0.944-0.928s-0.336-0.811-0.336-1.28zM23.040 31.36c-1.771 0-3.28-0.624-4.528-1.872s-1.872-2.757-1.872-4.528c0-1.771 0.624-3.28 1.872-4.528s2.757-1.872 4.528-1.872c1.771 0 3.28 0.624 4.528 1.872s1.872 2.757 1.872 4.528c0 1.771-0.624 3.28-1.872 4.528s-2.757 1.872-4.528 1.872z"></path>
</symbol>
<symbol id="icon-call" viewBox="0 0 32 32">
<path d="M30.133 32c-3.704 0-7.363-0.807-10.978-2.422s-6.904-3.904-9.867-6.867-5.252-6.252-6.867-9.867c-1.615-3.615-2.422-7.274-2.422-10.978 0-0.533 0.178-0.978 0.533-1.333s0.8-0.533 1.333-0.533h7.2c0.415 0 0.785 0.141 1.111 0.422s0.519 0.615 0.578 1l1.156 6.222c0.059 0.474 0.044 0.874-0.044 1.2s-0.252 0.607-0.489 0.844l-4.311 4.356c0.593 1.096 1.296 2.156 2.111 3.178s1.711 2.007 2.689 2.956c0.919 0.919 1.881 1.77 2.889 2.556s2.074 1.504 3.2 2.156l4.178-4.178c0.267-0.267 0.615-0.467 1.044-0.6s0.852-0.17 1.267-0.111l6.133 1.244c0.415 0.119 0.756 0.333 1.022 0.644s0.4 0.659 0.4 1.044v7.2c0 0.533-0.178 0.978-0.533 1.333s-0.8 0.533-1.333 0.533zM5.378 10.667l2.933-2.933-0.756-4.178h-3.956c0.148 1.215 0.356 2.415 0.622 3.6s0.652 2.356 1.156 3.511zM21.289 26.578c1.156 0.504 2.333 0.904 3.533 1.2s2.407 0.489 3.622 0.578v-3.911l-4.178-0.844-2.978 2.978z"></path>
</symbol>
<symbol id="icon-info" viewBox="0 0 32 32">
<path d="M16 23.618c0.432 0 0.794-0.146 1.086-0.438s0.438-0.654 0.438-1.086-0.146-0.794-0.438-1.086c-0.292-0.292-0.654-0.438-1.086-0.438s-0.794 0.146-1.086 0.438c-0.292 0.292-0.438 0.654-0.438 1.086s0.146 0.794 0.438 1.086c0.292 0.292 0.654 0.438 1.086 0.438zM14.476 17.523h3.048v-9.143h-3.048v9.143zM16 31.237c-2.108 0-4.089-0.4-5.943-1.2s-3.467-1.886-4.838-3.257c-1.371-1.371-2.457-2.984-3.257-4.838s-1.2-3.835-1.2-5.943 0.4-4.089 1.2-5.943c0.8-1.854 1.886-3.467 3.257-4.838s2.984-2.457 4.838-3.257c1.854-0.8 3.835-1.2 5.943-1.2s4.089 0.4 5.943 1.2c1.854 0.8 3.467 1.886 4.838 3.257s2.457 2.984 3.257 4.838c0.8 1.854 1.2 3.835 1.2 5.943s-0.4 4.089-1.2 5.943c-0.8 1.854-1.886 3.467-3.257 4.838s-2.984 2.457-4.838 3.257c-1.854 0.8-3.835 1.2-5.943 1.2zM16 28.19c3.403 0 6.286-1.181 8.648-3.543s3.543-5.244 3.543-8.648-1.181-6.286-3.543-8.648c-2.362-2.362-5.245-3.543-8.648-3.543s-6.286 1.181-8.648 3.543c-2.362 2.362-3.543 5.244-3.543 8.648s1.181 6.286 3.543 8.648c2.362 2.362 5.244 3.543 8.648 3.543z"></path>
</symbol>
<symbol id="icon-arrow-back" viewBox="0 0 46 32">
<path d="M16 0l3.257 3.2-10.514 10.514h36.971v4.571h-36.971l10.457 10.514-3.2 3.2-16-16 16-16z"></path>
</symbol>
<symbol id="icon-add_photo" viewBox="0 0 32 32">
<path d="M4 28c-0.733 0-1.361-0.261-1.883-0.783s-0.783-1.15-0.783-1.883v-16c0-0.733 0.261-1.361 0.783-1.883s1.15-0.783 1.883-0.783h4.2l2.467-2.667h8v2.667h-6.833l-2.433 2.667h-5.4v16h21.333v-12h2.667v12c0 0.733-0.261 1.361-0.783 1.883s-1.15 0.783-1.883 0.783h-21.333zM25.333 9.333v-2.667h-2.667v-2.667h2.667v-2.667h2.667v2.667h2.667v2.667h-2.667v2.667h-2.667zM14.666 23.333c1.667 0 3.083-0.583 4.25-1.75s1.75-2.583 1.75-4.25-0.583-3.083-1.75-4.25c-1.167-1.167-2.583-1.75-4.25-1.75s-3.083 0.583-4.25 1.75c-1.167 1.167-1.75 2.583-1.75 4.25s0.583 3.083 1.75 4.25c1.167 1.167 2.583 1.75 4.25 1.75zM14.666 20.667c-0.933 0-1.722-0.322-2.367-0.967s-0.967-1.433-0.967-2.367c0-0.933 0.322-1.722 0.967-2.367s1.433-0.967 2.367-0.967c0.933 0 1.722 0.322 2.367 0.967s0.967 1.433 0.967 2.367c0 0.933-0.322 1.722-0.967 2.367s-1.433 0.967-2.367 0.967z"></path>
</symbol>
<symbol id="icon-plus" viewBox="0 0 32 32">
<path d="M13.714 13.714v-13.714h4.571v13.714h13.714v4.571h-13.714v13.714h-4.571v-13.714h-13.714v-4.571h13.714z"></path>
</symbol>
<symbol id="icon-minus" viewBox="0 0 32 32">
<path d="M0 13v6c0 0.552 0.448 1 1 1h30c0.552 0 1-0.448 1-1v-6c0-0.552-0.448-1-1-1h-30c-0.552 0-1 0.448-1 1z"></path>
</symbol>
<symbol id="icon-add_photo" viewBox="0 0 32 32">
<path d="M4 28c-0.733 0-1.361-0.261-1.883-0.783s-0.783-1.15-0.783-1.883v-16c0-0.733 0.261-1.361 0.783-1.883s1.15-0.783 1.883-0.783h4.2l2.467-2.667h8v2.667h-6.833l-2.433 2.667h-5.4v16h21.333v-12h2.667v12c0 0.733-0.261 1.361-0.783 1.883s-1.15 0.783-1.883 0.783h-21.333zM25.333 9.333v-2.667h-2.667v-2.667h2.667v-2.667h2.667v2.667h2.667v2.667h-2.667v2.667h-2.667zM14.666 23.333c1.667 0 3.083-0.583 4.25-1.75s1.75-2.583 1.75-4.25-0.583-3.083-1.75-4.25c-1.167-1.167-2.583-1.75-4.25-1.75s-3.083 0.583-4.25 1.75c-1.167 1.167-1.75 2.583-1.75 4.25s0.583 3.083 1.75 4.25c1.167 1.167 2.583 1.75 4.25 1.75zM14.666 20.667c-0.933 0-1.722-0.322-2.367-0.967s-0.967-1.433-0.967-2.367c0-0.933 0.322-1.722 0.967-2.367s1.433-0.967 2.367-0.967c0.933 0 1.722 0.322 2.367 0.967s0.967 1.433 0.967 2.367c0 0.933-0.322 1.722-0.967 2.367s-1.433 0.967-2.367 0.967z"></path>
</symbol>
<symbol id="icon-attach" viewBox="0 0 27 32">
<path d="M16.889 14.445v-7.778h3.111v7.778h-3.111zM9.112 25.179c-0.907-0.259-1.653-0.765-2.236-1.517s-0.875-1.62-0.875-2.606v-14.389h3.111v18.511zM10.278 31.557c-2.696 0-4.991-0.946-6.883-2.839s-2.839-4.187-2.839-6.883v-14.389c0-1.944 0.681-3.597 2.042-4.958s3.014-2.042 4.958-2.042c1.944 0 3.597 0.681 4.958 2.042s2.042 3.014 2.042 4.958v11.667h-3.111v-11.667c-0.026-1.089-0.408-2.009-1.147-2.761s-1.653-1.128-2.742-1.128c-1.089 0-2.009 0.376-2.761 1.128s-1.128 1.672-1.128 2.761v14.389c-0.026 1.841 0.609 3.403 1.906 4.686s2.865 1.925 4.706 1.925c0.648 0 1.264-0.084 1.847-0.253s1.134-0.421 1.653-0.758v3.461c-0.544 0.207-1.108 0.37-1.692 0.486s-1.186 0.175-1.808 0.175zM16.889 30.001v-4.667h-4.667v-3.111h4.667v-4.667h3.111v4.667h4.667v3.111h-4.667v4.667h-3.111z"></path>
</symbol>
<symbol id="icon-cross" viewBox="0 0 32 32">
<path d="M8.533 25.333l-1.867-1.867 7.467-7.467-7.467-7.467 1.867-1.867 7.467 7.467 7.467-7.467 1.867 1.867-7.467 7.467 7.467 7.467-1.867 1.867-7.467-7.467-7.467 7.467z"></path>
</symbol>
<symbol id="icon-check" viewBox="0 0 44 32">
<path d="M16.122 31.999l-14.031-14.031 3.508-3.508 10.523 10.523 22.585-22.585 3.508 3.508-26.092 26.092z"></path>
</symbol>
<symbol id="icon-ion_document" viewBox="0 0 31 32">
<path stroke-linejoin="round" stroke-linecap="round" stroke-miterlimit="4" stroke-width="1.92" d="M12.48 4.48h4.005c0.509 0 0.997 0.202 1.357 0.562l8.476 8.476c0.36 0.36 0.562 0.848 0.562 1.357v11.685c0 0.764-0.303 1.496-0.844 2.036s-1.273 0.844-2.036 0.844h-12.48c-0.764 0-1.496-0.303-2.036-0.844s-0.844-1.273-0.844-2.036v-7.68"></path>
<path stroke-linejoin="round" stroke-linecap="round" stroke-miterlimit="4" stroke-width="1.92" d="M17.28 4.96v7.2c0 0.509 0.202 0.998 0.562 1.358s0.849 0.562 1.358 0.562h7.2"></path>
<path stroke-linejoin="miter" stroke-linecap="round" stroke-miterlimit="10" stroke-width="1.92" d="M9.6 5.44v9.12c0.002 0.19-0.033 0.378-0.105 0.554s-0.177 0.336-0.312 0.47c-0.134 0.134-0.294 0.24-0.47 0.312s-0.364 0.107-0.554 0.105c-0.72 0-1.44-0.546-1.44-1.44v-8.64c0-1.835 0.994-3.36 2.88-3.36s2.88 1.488 2.88 3.323v8.325c0 2.58-1.669 4.672-4.32 4.672s-4.32-2.092-4.32-4.672v-4.928"></path>
</symbol>
<symbol id="icon-pdf" viewBox="0 0 31 32">
<path d="M8.64 16c-0.255 0-0.499 0.101-0.679 0.281s-0.281 0.424-0.281 0.679v4.8c0 0.255 0.101 0.499 0.281 0.679s0.424 0.281 0.679 0.281 0.499-0.101 0.679-0.281c0.18-0.18 0.281-0.424 0.281-0.679v-0.96h0.48c0.637 0 1.247-0.253 1.697-0.703s0.703-1.060 0.703-1.697-0.253-1.247-0.703-1.697c-0.45-0.45-1.061-0.703-1.697-0.703h-1.44zM10.080 18.88h-0.48v-0.96h0.48c0.127 0 0.249 0.051 0.339 0.141s0.141 0.212 0.141 0.339-0.051 0.249-0.141 0.339c-0.090 0.090-0.212 0.141-0.339 0.141zM13.44 16.96c0-0.255 0.101-0.499 0.281-0.679s0.424-0.281 0.679-0.281h0.48c0.891 0 1.746 0.354 2.376 0.984s0.984 1.485 0.984 2.376-0.354 1.746-0.984 2.376c-0.63 0.63-1.485 0.984-2.376 0.984h-0.48c-0.255 0-0.499-0.101-0.679-0.281s-0.281-0.424-0.281-0.679v-4.8zM15.36 20.718c0.281-0.099 0.525-0.283 0.697-0.526s0.265-0.534 0.265-0.832-0.093-0.589-0.265-0.832c-0.172-0.243-0.416-0.427-0.697-0.526v2.717zM19.2 21.76v-4.8c0-0.255 0.101-0.499 0.281-0.679s0.424-0.281 0.679-0.281h2.88c0.255 0 0.499 0.101 0.679 0.281s0.281 0.424 0.281 0.679-0.101 0.499-0.281 0.679c-0.18 0.18-0.424 0.281-0.679 0.281h-1.92v0.96h1.92c0.255 0 0.499 0.101 0.679 0.281s0.281 0.424 0.281 0.679-0.101 0.499-0.281 0.679c-0.18 0.18-0.424 0.281-0.679 0.281h-1.92v0.96c0 0.255-0.101 0.499-0.281 0.679s-0.424 0.281-0.679 0.281-0.499-0.101-0.679-0.281c-0.18-0.18-0.281-0.424-0.281-0.679zM5.76 5.44v7.68h-0.96c-0.509 0-0.998 0.202-1.358 0.562s-0.562 0.848-0.562 1.358v8.64c0 0.509 0.202 0.998 0.562 1.358s0.848 0.562 1.358 0.562h0.96v0.96c0 0.764 0.303 1.496 0.844 2.036s1.273 0.844 2.036 0.844h13.44c0.764 0 1.496-0.303 2.036-0.844s0.844-1.273 0.844-2.036v-0.96h0.96c0.509 0 0.998-0.202 1.358-0.562s0.562-0.849 0.562-1.358v-8.64c0-0.509-0.202-0.998-0.562-1.358s-0.849-0.562-1.358-0.562h-0.96v-3.045c-0-0.763-0.304-1.495-0.844-2.035l-4.635-4.637c-0.54-0.54-1.272-0.843-2.036-0.843h-8.805c-0.764 0-1.496 0.303-2.036 0.844s-0.844 1.273-0.844 2.036zM8.64 4.48h6.72v4.8c0 0.764 0.303 1.496 0.844 2.036s1.273 0.844 2.036 0.844h4.8v0.96h-15.36v-7.68c0-0.255 0.101-0.499 0.281-0.679s0.424-0.281 0.679-0.281zM7.68 26.56v-0.96h15.36v0.96c0 0.255-0.101 0.499-0.281 0.679s-0.424 0.281-0.679 0.281h-13.44c-0.255 0-0.499-0.101-0.679-0.281s-0.281-0.424-0.281-0.679zM23.040 10.075v0.165h-4.8c-0.255 0-0.499-0.101-0.679-0.281s-0.281-0.424-0.281-0.679v-4.8h0.165c0.255 0 0.499 0.101 0.679 0.281l4.635 4.635c0.18 0.18 0.281 0.424 0.281 0.679zM4.8 15.040h21.12v8.64h-21.12v-8.64z"></path>
</symbol>
<symbol id="icon-search" viewBox="0 0 32 32">
<path d="M26.133 28l-8.4-8.4c-0.667 0.533-1.433 0.956-2.3 1.267s-1.789 0.467-2.767 0.467c-2.422 0-4.472-0.839-6.15-2.517s-2.517-3.728-2.517-6.15c0-2.422 0.839-4.472 2.517-6.15s3.728-2.517 6.15-2.517c2.422 0 4.472 0.839 6.15 2.517s2.517 3.728 2.517 6.15c0 0.978-0.156 1.9-0.467 2.767s-0.733 1.633-1.267 2.3l8.4 8.4-1.867 1.867zM12.667 18.667c1.667 0 3.083-0.583 4.25-1.75s1.75-2.583 1.75-4.25c0-1.667-0.583-3.083-1.75-4.25s-2.583-1.75-4.25-1.75c-1.667 0-3.083 0.583-4.25 1.75s-1.75 2.583-1.75 4.25c0 1.667 0.583 3.083 1.75 4.25s2.583 1.75 4.25 1.75z"></path>
</symbol>
<symbol id="icon-filter_list" viewBox="0 0 48 32">
<path d="M18.667 32v-5.333h10.667v5.333h-10.667zM8 18.667v-5.333h32v5.333h-32zM0 5.333v-5.333h48v5.333h-48z"></path>
</symbol>

<symbol id="icon-add_location_alt" viewBox="0 0 28 32">
<path d="M11.636 17.455c0.8 0 1.485-0.285 2.055-0.855s0.855-1.255 0.855-2.055c0-0.8-0.285-1.485-0.855-2.055s-1.255-0.855-2.055-0.855c-0.8 0-1.485 0.285-2.055 0.855s-0.855 1.255-0.855 2.055c0 0.8 0.285 1.485 0.855 2.055s1.255 0.855 2.055 0.855zM11.636 32c-3.903-3.321-6.818-6.406-8.745-9.255s-2.891-5.485-2.891-7.909c0-3.636 1.17-6.533 3.509-8.691s5.048-3.236 8.127-3.236c0.485 0 0.97 0.030 1.455 0.091s0.97 0.152 1.455 0.273v5.455h4.364v4.364h4.255c0.048 0.267 0.079 0.552 0.091 0.855s0.018 0.6 0.018 0.891c0 2.424-0.964 5.061-2.891 7.909s-4.842 5.933-8.745 9.255zM20.364 11.636v-4.364h-4.364v-2.909h4.364v-4.364h2.909v4.364h4.364v2.909h-4.364v4.364h-2.909z"></path>
</symbol>
<symbol id="icon-add_photo_alternate" viewBox="0 0 32 32">
<path d="M3.556 32c-0.978 0-1.815-0.348-2.511-1.044s-1.044-1.533-1.044-2.511v-24.889c0-0.978 0.348-1.815 1.044-2.511s1.533-1.044 2.511-1.044h16c-0.593 0.77-1.037 1.615-1.333 2.533s-0.444 1.852-0.444 2.8c0 2.459 0.867 4.556 2.6 6.289s3.83 2.6 6.289 2.6c0.948 0 1.881-0.148 2.8-0.444s1.763-0.741 2.533-1.333v16c0 0.978-0.348 1.815-1.044 2.511s-1.533 1.044-2.511 1.044h-24.889zM5.333 24.889h21.333l-6.667-8.889-5.333 7.111-4-5.333-5.333 7.111zM24.889 10.667v-3.556h-3.556v-3.556h3.556v-3.556h3.556v3.556h3.556v3.556h-3.556v3.556h-3.556z"></path>
</symbol>
<symbol id="icon-add-photo" viewBox="0 0 31 32">
<path d="M3.84 27.52c-0.704 0-1.307-0.251-1.808-0.752s-0.752-1.104-0.752-1.808v-15.36c0-0.704 0.251-1.307 0.752-1.808s1.104-0.752 1.808-0.752h4.032l2.368-2.56h7.68v2.56h-6.56l-2.336 2.56h-5.184v15.36h20.48v-11.52h2.56v11.52c0 0.704-0.251 1.307-0.752 1.808s-1.104 0.752-1.808 0.752h-20.48zM24.32 9.6v-2.56h-2.56v-2.56h2.56v-2.56h2.56v2.56h2.56v2.56h-2.56v2.56h-2.56zM14.080 23.040c1.6 0 2.96-0.56 4.080-1.68s1.68-2.48 1.68-4.080c0-1.6-0.56-2.96-1.68-4.080s-2.48-1.68-4.080-1.68c-1.6 0-2.96 0.56-4.080 1.68s-1.68 2.48-1.68 4.080c0 1.6 0.56 2.96 1.68 4.080s2.48 1.68 4.080 1.68zM14.080 20.48c-0.896 0-1.653-0.309-2.272-0.928s-0.928-1.376-0.928-2.272c0-0.896 0.309-1.653 0.928-2.272s1.376-0.928 2.272-0.928c0.896 0 1.653 0.309 2.272 0.928s0.928 1.376 0.928 2.272c0 0.896-0.309 1.653-0.928 2.272s-1.376 0.928-2.272 0.928z"></path>
</symbol>
<symbol id="icon-add_home_work" viewBox="0 0 37 32">
<path d="M26.4 9.6h3.2v-3.2h-3.2v3.2zM28 32c-2.213 0-4.1-0.78-5.66-2.34s-2.34-3.447-2.34-5.66c0-2.213 0.78-4.1 2.34-5.66s3.447-2.34 5.66-2.34c2.213 0 4.1 0.78 5.66 2.34s2.34 3.447 2.34 5.66c0 2.213-0.78 4.1-2.34 5.66s-3.447 2.34-5.66 2.34zM27.2 28.8h1.6v-4h4v-1.6h-4v-4h-1.6v4h-4v1.6h4v4zM36 16.2c-1.040-1.12-2.253-1.967-3.64-2.54s-2.84-0.86-4.36-0.86c-0.293 0-0.567 0.007-0.82 0.020s-0.513 0.047-0.78 0.1v-1.72l-11.2-8.080v-3.12h20.8v16.2zM0.8 28.8v-16l11.2-8 11.2 8v1.080c-1.92 0.907-3.467 2.287-4.64 4.14s-1.76 3.847-1.76 5.98c0 0.827 0.087 1.647 0.26 2.46s0.447 1.593 0.82 2.34h-2.68v-9.6h-6.4v9.6h-8z"></path>
</symbol>
<symbol id="icon-delete" viewBox="0 0 31 32">
<path d="M9.011 27.586c-0.708 0-1.314-0.252-1.818-0.756s-0.756-1.11-0.756-1.818v-16.736h-1.287v-2.575h6.437v-1.287h7.724v1.287h6.437v2.575h-1.287v16.736c0 0.708-0.252 1.314-0.756 1.818s-1.11 0.756-1.818 0.756h-12.874zM21.885 8.276h-12.874v16.736h12.874v-16.736zM11.586 22.437h2.575v-11.586h-2.575v11.586zM16.736 22.437h2.575v-11.586h-2.575v11.586z"></path>
</symbol>
</defs>
</svg>
